<svg width="24" height="32" viewBox="0 0 24 32" fill="none" xmlns="http://www.w3.org/2000/svg">
<g filter="url(#filter0_d)">
<path d="M16 24H7.56757C5.58108 24 4 22.3784 4 20.4324V3.56757C4 1.58108 5.62162 0 7.56757 0H16C17.9865 0 19.5676 1.62162 19.5676 3.56757V20.4324C19.5676 22.3784 17.9865 24 16 24ZM7.56757 1.7027C6.55405 1.7027 5.7027 2.55405 5.7027 3.56757V20.4324C5.7027 21.4459 6.55405 22.2973 7.56757 22.2973H16C17.0135 22.2973 17.8649 21.4459 17.8649 20.4324V3.56757C17.8649 2.55405 17.0135 1.7027 16 1.7027H7.56757Z" fill="#3A4276"/>
<path d="M11.7837 21.2432C10.2432 21.2432 8.98645 19.9865 8.98645 18.4459C8.98645 16.9054 10.2432 15.6486 11.7837 15.6486C13.3243 15.6486 14.581 16.9054 14.581 18.4459C14.581 19.9865 13.3243 21.2432 11.7837 21.2432ZM11.7837 17.3108C11.1756 17.3108 10.6892 17.7973 10.6892 18.4054C10.6892 19.0135 11.1756 19.5 11.7837 19.5C12.3919 19.5 12.8783 19.0135 12.8783 18.4054C12.9189 17.8378 12.3919 17.3108 11.7837 17.3108Z" fill="#3A4276"/>
</g>
<defs>
<filter id="filter0_d" x="0" y="0" width="23.5676" height="32" filterUnits="userSpaceOnUse" color-interpolation-filters="sRGB">
<feFlood flood-opacity="0" result="BackgroundImageFix"/>
<feColorMatrix in="SourceAlpha" type="matrix" values="0 0 0 0 0 0 0 0 0 0 0 0 0 0 0 0 0 0 127 0"/>
<feOffset dy="4"/>
<feGaussianBlur stdDeviation="2"/>
<feColorMatrix type="matrix" values="0 0 0 0 0 0 0 0 0 0 0 0 0 0 0 0 0 0 0.25 0"/>
<feBlend mode="normal" in2="BackgroundImageFix" result="effect1_dropShadow"/>
<feBlend mode="normal" in="SourceGraphic" in2="effect1_dropShadow" result="shape"/>
</filter>
</defs>
</svg>
