<svg width="39" height="42" viewBox="0 0 39 42" fill="none" xmlns="http://www.w3.org/2000/svg">
<path d="M38.8465 41.3531H0.150391C0.220811 40.6681 0.569713 38.2866 2.31102 35.2426C4.37882 31.6223 13.5975 32.1377 13.908 31.6223C14.0424 31.3982 14.1193 30.486 14.1641 29.5289C14.2185 28.2869 14.2185 26.9681 14.2185 26.9681L19.5 28.5238L24.7816 26.9681C24.7816 26.9681 24.7816 28.2773 24.8328 29.5289C24.8808 30.4892 24.9544 31.4142 25.0921 31.6415C25.4122 32.1569 34.6181 31.6415 36.6891 35.2618C38.4272 38.2866 38.7793 40.6681 38.8465 41.3531Z" fill="#CD8B6D"/>
<path d="M38.8465 41.353H0.150391C0.220811 40.668 0.569713 38.2865 2.31102 35.2424C4.05233 32.1984 10.9215 32.0735 13.1942 31.8046C13.6071 31.7534 13.8664 31.7022 13.9144 31.6222C13.9144 31.6222 19.404 38.7667 25.0985 31.6222C25.1497 31.7118 25.4762 31.7694 25.9883 31.8271C28.4082 32.0831 34.9862 32.256 36.6954 35.2424C38.4272 38.2865 38.7793 40.668 38.8465 41.353Z" fill="#006986"/>
<path d="M25.9821 31.8271C21.5008 38.0593 16.1552 34.6439 13.1783 31.8046C13.5913 31.7534 13.8505 31.7022 13.8986 31.6222C13.8986 31.6222 19.3882 38.7667 25.0826 31.6222C25.1434 31.7118 25.4699 31.7694 25.9821 31.8271Z" fill="#6EBCCE"/>
<path d="M10.4605 16.181C10.4605 16.181 8.01176 12.0454 7.00026 15.5888C5.98877 19.1322 8.43428 20.8223 10.0379 20.4862C11.6416 20.1501 10.4605 16.181 10.4605 16.181Z" fill="#CD8B6D"/>
<path d="M10.1759 16.8563C10.1759 16.8563 8.48898 14.238 7.8968 15.2943C7.53638 16.0411 7.39118 16.8735 7.47748 17.6982C7.47748 17.6982 7.81357 16.2226 8.91149 17.058C8.91149 17.058 7.85518 19.4203 10.0094 18.7449C9.99661 18.7545 10.8833 18.0375 10.1759 16.8563Z" fill="#B66C50"/>
<path d="M28.0371 16.181C28.0371 16.181 30.4858 12.0454 31.4973 15.5888C32.5088 19.1322 30.0633 20.8223 28.4596 20.4862C26.856 20.1501 28.0371 16.181 28.0371 16.181Z" fill="#CD8B6D"/>
<path d="M28.0721 17.1316C28.0721 17.1316 29.759 14.5132 30.3512 15.5696C30.7117 16.3163 30.858 17.1485 30.7737 17.9735C30.7737 17.9735 30.4344 16.4978 29.3365 17.3333C29.3365 17.3333 30.3928 19.6956 28.2385 19.0202C28.2385 19.0298 27.3551 18.3128 28.0721 17.1316Z" fill="#B66C50"/>
<path d="M28.1009 22.9317C27.9152 25.9726 24.4486 28.2229 22.1824 29.228C20.884 29.8334 19.4268 30.0105 18.0212 29.7337C9.45546 27.2146 9.69873 21.4113 10.0828 19.782C10.467 18.1527 9.94199 14.9806 10.9471 11.2163C11.0765 10.7291 11.2692 10.261 11.5201 9.82388C13.0533 7.1479 16.3215 6.28685 16.3215 6.28685C21.9839 2.62818 25.9467 6.22283 27.2526 9.16769C27.3394 9.35997 27.4164 9.55655 27.4831 9.75666C28.4722 12.7879 28.2929 19.5195 28.1009 22.9317Z" fill="#E8B299"/>
<path d="M10.2845 7.38794C10.1789 7.70803 9.83641 14.0011 10.1629 16.8563L13.1814 8.94039L10.2845 7.38794Z" fill="#92561A"/>
<path d="M26.6444 8.00896C26.6444 8.00896 23.4851 9.28933 18.0851 10.4865C17.5346 10.6081 16.9648 10.7297 16.3662 10.8482C15.5532 11.0104 14.6996 11.1683 13.8055 11.3219C10.2557 11.9205 8.63917 10.8802 7.93176 9.54221C7.8751 9.43821 7.82382 9.33137 7.77813 9.22211C7.11553 7.62165 7.59247 5.74269 7.59247 5.74269C7.77812 6.13641 8.18784 6.17482 8.77682 5.96676C8.88583 5.92889 8.99269 5.88507 9.09691 5.83552C11.2191 4.90085 15.1467 1.6295 19.1831 0.256295C19.6844 0.0798804 20.2138 -0.00363916 20.7451 0.00982641C20.9967 0.0187253 21.2467 0.054127 21.4909 0.115453C22.2845 0.331965 23.0033 0.762749 23.5683 1.36061C23.6548 1.45024 23.7412 1.53987 23.8244 1.63269C24.3375 2.22622 24.7751 2.88099 25.1272 3.58206C25.2296 3.77732 25.3256 3.97578 25.4185 4.17104C25.9911 5.39204 26.4032 6.68208 26.6444 8.00896Z" fill="#A16929"/>
<path d="M23.8309 1.61994C23.053 2.5002 22.2624 3.36445 21.3982 4.18069C19.0071 6.45335 16.2383 8.42513 13.0117 9.30218C11.4113 9.73111 9.54191 9.99999 7.93184 9.54225C7.87517 9.43826 7.8239 9.33142 7.7782 9.22216C7.91584 9.26377 8.05348 9.29578 8.20393 9.32779C11.0848 9.91676 14.2857 8.87005 16.7664 7.40723C19.3672 5.80154 21.6707 3.75802 23.5748 1.36707C23.6612 1.43749 23.7476 1.52711 23.8309 1.61994Z" fill="#C98643"/>
<path d="M21.4975 0.102646C20.0379 2.50655 18.1205 4.62557 15.8991 5.99877C14.0937 7.1127 12.0579 7.52882 10.0253 6.84702C9.52396 6.69143 9.08615 6.37823 8.77698 5.95395C8.88599 5.91608 8.99285 5.87227 9.09707 5.82271C9.28616 6.03144 9.51602 6.19921 9.77246 6.31566C10.8467 6.7961 12.0495 6.90861 13.1943 6.63575C15.1404 6.16522 16.8337 4.86244 18.1909 3.43482C19.1704 2.39061 20.0294 1.23958 20.7517 0.00341797C21.0031 0.0102195 21.2531 0.0434785 21.4975 0.102646Z" fill="#C98643"/>
<path d="M25.4251 4.15821C24.0184 5.80419 22.4507 7.30542 20.7453 8.63952C19.8999 9.31151 19.0113 9.9274 18.0854 10.4833C17.5348 10.6049 16.965 10.7265 16.3665 10.845C18.1356 10.0416 19.7685 8.967 21.2063 7.66004C22.6275 6.4075 23.9413 5.03804 25.1338 3.56604C25.2362 3.7645 25.3323 3.96296 25.4251 4.15821Z" fill="#C98643"/>
<path d="M29.1797 10.8322C29.1541 11.0691 29.1285 11.306 29.0997 11.5364C28.9368 12.8278 28.7071 14.1099 28.4115 15.3776C28.3635 15.592 28.3187 15.7649 28.2899 15.8897C28.2547 16.0369 28.2322 16.117 28.2322 16.117L28.1714 15.7137C28.1714 15.6944 28.1714 15.6784 28.1714 15.6592C28.0402 14.6509 27.5313 13.3482 26.9103 12.023C25.7939 9.76635 24.5278 7.58698 23.1204 5.49947C22.6882 3.89901 23.8342 3.18519 24.7656 2.8651C24.9221 2.81083 25.0813 2.76488 25.2426 2.72746C25.4375 2.67959 25.6353 2.6443 25.8347 2.62183C26.0017 2.62353 26.1685 2.63529 26.3341 2.65704C26.5101 2.68429 26.6835 2.72604 26.8526 2.78187C29.3174 3.61091 29.5126 7.47125 29.1797 10.8322Z" fill="#92561A"/>
<path d="M28.4211 15.384C28.373 15.5984 28.3282 15.7713 28.2994 15.8961C28.2578 15.8193 28.213 15.7457 28.1746 15.6688C27.6002 14.6196 27.191 13.4882 26.9614 12.3142L26.9134 12.0326C26.3885 8.80603 26.3917 5.52827 24.7688 2.8747C24.9252 2.82042 25.0844 2.77448 25.2457 2.73706C25.421 3.02853 25.5791 3.32993 25.7195 3.63973C26.2989 5.08538 26.6696 6.60613 26.8206 8.15624C27.0799 10.3105 27.1087 12.5927 28.0081 14.6029C28.133 14.8622 28.2642 15.1247 28.4211 15.384Z" fill="#B56E2D"/>
<path d="M29.1798 10.8322C29.1542 11.0691 29.1286 11.3059 29.0998 11.5364C27.6849 9.29576 26.9487 5.38102 26.3278 2.66663C26.5038 2.69387 26.6772 2.73562 26.8463 2.79146C27.2752 4.39192 27.4865 6.11083 27.9506 7.62168C28.2377 8.73486 28.6501 9.81191 29.1798 10.8322Z" fill="#B56E2D"/>
<path d="M13.86 13.2777C12.8998 13.8667 12.3268 15.3103 12.8998 16.2418C12.9254 16.2898 13.0246 16.2706 13.0182 16.2162C12.9728 15.7852 13.0252 15.3496 13.1715 14.9417C13.3178 14.5338 13.5543 14.1641 13.8632 13.8603C14.276 13.484 14.8124 13.2722 15.3709 13.2649C16.0111 13.2233 16.2927 13.7963 16.7953 13.9915C16.8977 14.0331 17.029 13.9659 16.9937 13.8603C16.5968 12.6631 14.8427 12.6823 13.86 13.2777Z" fill="#390A0A"/>
<path d="M17.2497 15.9664C17.2497 17.5189 16.2894 18.7801 15.1179 18.7801C13.9463 18.7801 12.9893 17.5189 12.9893 15.9664C12.9893 14.414 13.9495 13.1528 15.1179 13.1528C16.2862 13.1528 17.2497 14.414 17.2497 15.9664Z" fill="white"/>
<path d="M16.7985 16.0497C16.7985 17.2053 16.0719 18.1431 15.1756 18.1431C14.2793 18.1431 13.5527 17.2053 13.5527 16.0497C13.5527 14.8942 14.2793 13.9531 15.1756 13.9531C16.0719 13.9531 16.7985 14.9006 16.7985 16.0497Z" fill="#3D79CA"/>
<path d="M16.5391 16.0817C16.5391 17.042 15.9437 17.8487 15.2107 17.8487C14.4777 17.8487 13.8823 17.058 13.8823 16.0817C13.8823 15.1055 14.4777 14.3148 15.2107 14.3148C15.9437 14.3148 16.5391 15.1087 16.5391 16.0817Z" fill="#390A0A"/>
<path d="M16.7983 14.5613C16.7983 14.7534 16.4206 14.907 15.9564 14.907C15.4923 14.907 15.1178 14.7534 15.1178 14.5613C15.1178 14.3692 15.4955 14.2124 15.9564 14.2124C16.4174 14.2124 16.7983 14.366 16.7983 14.5613Z" fill="white"/>
<path d="M24.6792 13.2777C25.6395 13.8667 26.2125 15.3103 25.6395 16.2418C25.6139 16.2898 25.5147 16.2706 25.5211 16.2162C25.5665 15.7852 25.5141 15.3496 25.3678 14.9417C25.2215 14.5338 24.985 14.1641 24.676 13.8603C24.2644 13.4843 23.7291 13.2724 23.1716 13.2649C22.5314 13.2233 22.2465 13.7963 21.744 13.9915C21.6415 14.0331 21.5103 13.9659 21.5455 13.8603C21.9424 12.6631 23.6965 12.6823 24.6792 13.2777Z" fill="#390A0A"/>
<path d="M25.3962 15.9664C25.3962 17.5189 24.4359 18.7801 23.2675 18.7801C22.0992 18.7801 21.1389 17.5189 21.1389 15.9664C21.1389 14.414 22.0992 13.1528 23.2675 13.1528C24.4359 13.1528 25.3962 14.414 25.3962 15.9664Z" fill="white"/>
<path d="M24.9447 16.0497C24.9447 17.2053 24.2181 18.1431 23.3219 18.1431C22.4256 18.1431 21.699 17.2149 21.699 16.0497C21.699 14.8846 22.4256 13.9531 23.3186 13.9531C24.2117 13.9531 24.9447 14.9006 24.9447 16.0497Z" fill="#3D79CA"/>
<path d="M24.6887 16.0817C24.6887 17.042 24.0933 17.8487 23.3571 17.8487C22.6208 17.8487 22.0287 17.058 22.0287 16.0817C22.0287 15.1055 22.624 14.3148 23.3571 14.3148C24.0901 14.3148 24.6887 15.1087 24.6887 16.0817Z" fill="#390A0A"/>
<path d="M24.945 14.5613C24.945 14.7534 24.5705 14.907 24.1063 14.907C23.6422 14.907 23.2677 14.7534 23.2677 14.5613C23.2677 14.3692 23.6422 14.2124 24.1063 14.2124C24.5705 14.2124 24.945 14.366 24.945 14.5613Z" fill="white"/>
<path d="M19.2086 14.6093C19.2086 14.6093 18.5684 13.9691 18.4532 16.2482C18.338 18.5273 18.4532 20.9088 18.4532 20.9088C18.4532 20.9088 16.9424 20.0253 17.4449 21.2865C17.717 21.9651 18.3572 22.314 19.0454 22.4932C19.2954 22.5655 19.5608 22.5647 19.8104 22.491C20.06 22.4172 20.2832 22.2736 20.4538 22.0771C20.633 21.901 21.5677 20.9536 21.2732 20.6591C21.1324 20.515 20.3129 20.8543 20.1049 20.9088C20.0985 20.9088 20.3417 14.1068 19.2086 14.6093Z" fill="#CD8B6D"/>
<path d="M22.9794 23.8375C22.9794 23.8375 20.0121 28.9238 15.9149 24.0296C15.9149 24.0296 18.3028 23.2229 19.1767 23.94L19.4968 24.3017C19.4968 24.3017 20.4186 23.1653 22.9794 23.8375Z" fill="#B66C50"/>
<path d="M22.9794 23.8375C22.9794 23.8375 20.0121 28.9238 15.9149 24.0296C15.9373 24.0296 19.9417 25.8669 22.9794 23.8375Z" fill="#CD8B6D"/>
<path d="M17.9476 11.9973C17.9476 12.8264 16.5072 12.359 14.7467 12.359C12.9862 12.359 11.5458 12.8264 11.5458 11.9973C11.5458 11.1683 12.983 9.35657 14.7467 9.35657C16.5104 9.35657 17.9476 11.1683 17.9476 11.9973Z" fill="#6D3A12"/>
<path d="M26.6445 11.9973C26.6445 12.8264 25.2073 12.359 23.4436 12.359C21.6799 12.359 20.2427 12.8264 20.2427 11.9973C20.2427 11.1683 21.6799 9.35657 23.4436 9.35657C25.2073 9.35657 26.6445 11.1683 26.6445 11.9973Z" fill="#6D3A12"/>
</svg>
