<svg width="25" height="40" viewBox="0 0 25 40" fill="none" xmlns="http://www.w3.org/2000/svg">
<path d="M23.2843 43.3306L12.4051 43.4964L1.73559 43.3306C1.45494 42.3747 1.43044 41.3618 1.66453 40.3934C1.9454 39.2665 2.67971 38.0246 4.31075 37.0095C5.15722 36.5017 6.06762 36.1091 7.01788 35.842C7.28521 35.7676 7.56268 35.6931 7.85708 35.6254C8.15148 35.5578 8.51356 35.4799 8.87226 35.419C9.23095 35.3581 9.60657 35.2938 10.0025 35.2431L10.0668 35.2769C9.97503 33.9215 9.68664 32.5867 9.21065 31.3143L15.4506 31.5614C15.1124 32.698 14.9604 33.8819 15.0005 35.0671L15.0276 35.0468C15.7365 35.1355 16.4403 35.2621 17.1358 35.4258L17.5757 35.5341C17.9411 35.6333 18.2863 35.7382 18.6111 35.8488C19.1852 36.0408 19.7412 36.2831 20.2726 36.5729C21.5957 37.2319 22.6303 38.3544 23.1794 39.7267C23.632 40.8794 23.6691 42.1536 23.2843 43.3306Z" fill="#CD8B6D"/>
<path d="M23.5416 41.8924C23.5416 42.0582 23.5213 42.2308 23.5044 42.356C23.4649 42.6843 23.3912 43.0075 23.2845 43.3204L12.4052 43.4862L1.73572 43.3204C1.60151 42.8813 1.52752 42.4259 1.51577 41.9669C1.51577 41.9161 1.51577 41.8687 1.51577 41.8146C1.50417 41.3329 1.55536 40.8517 1.66805 40.3832C1.72713 40.1536 1.79944 39.9277 1.88461 39.7064C1.93537 39.588 1.9929 39.4662 2.05043 39.3477C2.56991 38.3629 3.35392 37.5425 4.31426 36.979L4.46992 36.8809L4.69664 36.7557C5.43737 36.3601 6.21772 36.0436 7.02477 35.8115C7.2921 35.7371 7.56958 35.6627 7.86398 35.595C8.15838 35.5273 8.52046 35.4495 8.87916 35.3885C10.1718 37.226 13.0346 39.7132 17.5826 35.5036C17.948 35.6029 18.2932 35.7078 18.618 35.8183C19.1921 36.0103 19.7481 36.2527 20.2795 36.5425C20.3641 36.5865 20.4453 36.6338 20.5266 36.6812C20.7059 36.7861 20.865 36.891 21.0308 37.0027C22.006 37.6669 22.7574 38.6106 23.1863 39.7098C23.2337 39.8316 23.2777 39.9534 23.3115 40.0719C23.3543 40.1899 23.3882 40.3109 23.413 40.434C23.5247 40.9116 23.568 41.4026 23.5416 41.8924Z" fill="#FFAC30"/>
<path d="M21.0241 37.023C17.9786 38.7589 14.5202 40.0685 11.2311 39.7471C8.7473 39.4732 6.39632 38.4847 4.46326 36.9012L4.68998 36.776C7.05872 38.583 10.0095 39.6861 12.9027 39.3511C15.6674 39.0127 18.141 37.9807 20.5165 36.7015C20.6992 36.8166 20.8651 36.9113 21.0241 37.023Z" fill="white"/>
<path d="M23.4062 40.4408C19.9213 41.5399 16.2675 42.0052 12.6183 41.8146C9.57279 41.6217 6.4799 41.3443 3.57989 40.3629C3.00463 40.1667 2.44064 39.9535 1.88794 39.7234C1.9387 39.6049 1.99622 39.4831 2.05375 39.3647C5.633 40.6872 9.40602 41.4098 13.2206 41.5033C16.4256 41.6425 19.6307 41.2292 22.6956 40.2817C22.9054 40.2174 23.1118 40.1464 23.3182 40.0787C23.3564 40.1971 23.3858 40.3181 23.4062 40.4408Z" fill="white"/>
<path d="M4.67299 15.9819C4.67299 15.9819 1.74929 11.0448 0.541235 15.2781C-0.66682 19.5113 2.25349 21.5214 4.16879 21.1187C6.08408 20.716 4.67299 15.9819 4.67299 15.9819Z" fill="#CD8B6D"/>
<path d="M4.3175 16.7873C4.3175 16.7873 2.30408 13.664 1.61037 14.9228C0.916673 16.1816 1.10618 17.7957 1.10618 17.7957C1.10618 17.7957 1.50886 16.0327 2.81843 17.0377C2.81843 17.0377 1.55962 19.8599 4.128 19.0681C4.11785 19.0545 5.17701 18.2052 4.3175 16.7873Z" fill="#B66C50"/>
<path d="M20.0966 15.3762C20.0966 15.3762 23.0169 10.4391 24.2283 14.6724C25.4398 18.9056 22.5161 20.9191 20.6008 20.513C18.6855 20.1069 20.0966 15.3762 20.0966 15.3762Z" fill="#CD8B6D"/>
<path d="M20.1408 16.5131C20.1408 16.5131 22.1711 13.3898 22.8479 14.652C23.5247 15.9142 23.3521 17.5215 23.3521 17.5215C23.3521 17.5215 22.9494 15.7585 21.6398 16.7669C21.6398 16.7669 22.8986 19.5857 20.3303 18.7804C20.3438 18.777 19.2846 17.9208 20.1408 16.5131Z" fill="#B66C50"/>
<path d="M4.86927 9.18356C4.57826 9.47796 4.16542 17.8464 4.36507 21.0712C4.56472 24.2961 5.77616 33.3616 13.0313 33.3616C20.2864 33.3616 21.491 20.9697 19.7788 9.98893C19.7822 9.98893 12.0262 1.92846 4.86927 9.18356Z" fill="#E8B299"/>
<path d="M7.26848 14.652C6.39205 15.2781 5.89123 16.8042 6.39882 17.7855C6.40547 17.7954 6.415 17.8029 6.4261 17.8071C6.4372 17.8113 6.44932 17.8119 6.46081 17.809C6.47229 17.806 6.48258 17.7996 6.49026 17.7905C6.49794 17.7815 6.50264 17.7703 6.50372 17.7585C6.46029 17.3142 6.50522 16.8657 6.63589 16.4388C6.76656 16.0119 6.9804 15.6152 7.2651 15.2713C7.43635 15.0802 7.64462 14.9259 7.87729 14.8177C8.10996 14.7095 8.36218 14.6497 8.61866 14.6419C9.19054 14.5945 9.44772 15.2002 9.89778 15.41C9.91903 15.4219 9.9433 15.4273 9.96759 15.4256C9.99187 15.4239 10.0151 15.4152 10.0345 15.4004C10.0539 15.3857 10.0686 15.3657 10.0768 15.3427C10.0849 15.3198 10.0862 15.295 10.0805 15.2713C9.72858 14.0023 8.15168 14.026 7.26848 14.652Z" fill="#390A0A"/>
<path d="M10.3139 17.4945C10.3139 19.1357 9.45776 20.4656 8.3986 20.4656C7.33944 20.4656 6.48669 19.1357 6.48669 17.4945C6.48669 15.8533 7.34282 14.5234 8.3986 14.5234C9.45438 14.5234 10.3139 15.8533 10.3139 17.4945Z" fill="white"/>
<path d="M9.90793 17.5926C9.90793 18.8142 9.25483 19.8057 8.44946 19.8057C7.64409 19.8057 6.99438 18.8142 6.99438 17.5926C6.99438 16.371 7.64409 15.3795 8.44946 15.3795C9.25483 15.3795 9.90793 16.371 9.90793 17.5926Z" fill="#3D79CA"/>
<path d="M9.67782 17.6163C9.67782 18.6484 9.13978 19.4842 8.47992 19.4842C7.82006 19.4842 7.2854 18.6484 7.2854 17.6163C7.2854 16.5842 7.82344 15.7518 8.47992 15.7518C9.1364 15.7518 9.67782 16.5876 9.67782 17.6163Z" fill="#390A0A"/>
<path d="M9.90779 16.009C9.90779 16.212 9.5694 16.3778 9.15317 16.3778C8.73695 16.3778 8.39856 16.212 8.39856 16.009C8.39856 15.8059 8.73695 15.6435 9.15317 15.6435C9.5694 15.6435 9.90779 15.8059 9.90779 16.009Z" fill="white"/>
<path d="M17.5487 14.652C18.4252 15.2781 18.9294 16.8042 18.4184 17.7855C18.4117 17.7954 18.4022 17.8029 18.3911 17.8071C18.38 17.8113 18.3679 17.8119 18.3564 17.809C18.3449 17.806 18.3346 17.7996 18.3269 17.7905C18.3193 17.7815 18.3146 17.7703 18.3135 17.7585C18.3584 17.3141 18.3142 16.8652 18.1835 16.4381C18.0527 16.0111 17.8381 15.6144 17.5521 15.2713C17.3809 15.0802 17.1726 14.9259 16.9399 14.8177C16.7072 14.7095 16.455 14.6497 16.1985 14.6419C15.6267 14.5945 15.3695 15.2002 14.9194 15.41C14.8983 15.4209 14.8744 15.4255 14.8507 15.4233C14.827 15.4211 14.8045 15.4122 14.7857 15.3977C14.7668 15.3831 14.7526 15.3635 14.7445 15.3411C14.7364 15.3187 14.7349 15.2945 14.7401 15.2713C15.0886 14.0023 16.6689 14.026 17.5487 14.652Z" fill="#390A0A"/>
<path d="M18.1951 17.4945C18.1951 19.1357 17.339 20.4656 16.2832 20.4656C15.2274 20.4656 14.3679 19.1357 14.3679 17.4945C14.3679 15.8533 15.224 14.5234 16.2832 14.5234C17.3424 14.5234 18.1951 15.8533 18.1951 17.4945Z" fill="white"/>
<path d="M17.789 17.5926C17.789 18.8142 17.1359 19.8057 16.3306 19.8057C15.5252 19.8057 14.8755 18.8142 14.8755 17.5926C14.8755 16.371 15.5286 15.3795 16.3306 15.3795C17.1326 15.3795 17.789 16.371 17.789 17.5926Z" fill="#3D79CA"/>
<path d="M17.5588 17.6163C17.5588 18.6484 17.0242 19.4842 16.3643 19.4842C15.7045 19.4842 15.1698 18.6484 15.1698 17.6163C15.1698 16.5842 15.7045 15.7518 16.3643 15.7518C17.0242 15.7518 17.5588 16.5876 17.5588 17.6163Z" fill="#390A0A"/>
<path d="M17.7889 16.009C17.7889 16.212 17.4505 16.3778 17.0343 16.3778C16.6181 16.3778 16.2831 16.212 16.2831 16.009C16.2831 15.8059 16.6215 15.6435 17.0343 15.6435C17.4471 15.6435 17.7889 15.8059 17.7889 16.009Z" fill="white"/>
<path d="M6.00269 14.9667C6.00269 14.9667 7.47807 12.0938 10.5168 14.6283C10.5168 14.6385 8.05333 13.735 6.00269 14.9667Z" fill="#7C2C14"/>
<path d="M14.3748 14.6385C14.3748 14.6385 15.8535 11.7655 18.8923 14.3001C18.8923 14.3102 16.4288 13.4067 14.3748 14.6385Z" fill="#7C2C14"/>
<path d="M20.9225 14.1444C20.9225 14.0226 20.8954 13.9041 20.8819 13.806C20.8683 13.7079 20.848 13.5827 20.8413 13.4913C20.6755 12.0531 22.3268 10.1818 21.518 8.78766C21.271 8.36129 20.7939 8.21916 20.3607 8.07704C18.7026 7.539 19.261 5.56279 19.2948 4.31751C19.3253 3.42416 19.0613 1.9014 17.992 1.63407L17.833 1.59686C17.7036 1.5709 17.5723 1.55618 17.4404 1.55286C17.0444 1.55313 16.6523 1.63131 16.2865 1.78297C16.0293 1.88449 14.2562 3.16022 14.1039 2.77445C13.3764 1.00128 12.0025 0.578295 10.7775 1.05204C10.5567 1.14086 10.3467 1.25438 10.1515 1.39043C9.45824 1.87143 8.93008 2.55439 8.63889 3.34633C8.57798 3.49861 8.37156 6.39185 7.52896 5.50188C7.14658 5.10258 6.6593 4.43257 6.06035 4.31075C4.70678 4.04004 3.89803 4.85556 3.14681 5.90119C2.33129 7.03818 1.81354 8.60831 2.11471 10.0126C2.31438 10.9528 2.61269 11.8693 3.00468 12.7468C3.07236 12.8991 3.13327 13.0548 3.19418 13.2172C3.25509 13.3796 3.27878 13.4507 3.31939 13.5556C3.50809 14.1892 3.77163 14.7981 4.10445 15.3694C4.087 15.4048 4.08009 15.4445 4.08454 15.4838C4.08899 15.523 4.10461 15.5602 4.12955 15.5908C4.1545 15.6215 4.1877 15.6443 4.22524 15.6567C4.26278 15.669 4.30307 15.6703 4.34133 15.6604C5.61029 15.4167 6.31753 13.894 6.65592 12.7739C6.87952 12.1284 7.02273 11.4579 7.08229 10.7774C7.52132 11.0857 7.99776 11.337 8.50015 11.5252C8.95714 11.6739 9.44852 11.68 9.90907 11.5428C10.3696 11.4056 10.7775 11.1316 11.0787 10.7571C11.7859 11.5388 13.0853 11.8839 13.999 11.2613C14.3216 10.9932 14.5504 10.6293 14.6521 10.2224C14.7466 9.85427 14.8155 9.48002 14.8585 9.10236C15.2138 7.41041 17.5216 8.10749 17.8837 9.18019C18.1544 9.97879 17.8499 11.0041 17.8837 11.8332C17.9176 12.557 18.0851 13.2683 18.3778 13.9312C18.6857 14.6283 19.393 15.9345 20.3844 15.6604C20.9665 15.498 20.9935 14.7738 20.9326 14.1579L20.9225 14.1444Z" fill="#A6562F"/>
<path d="M4.43605 13.1022C4.09306 13.3219 3.71204 13.4757 3.31259 13.5556C3.27199 13.4372 3.228 13.3187 3.18739 13.2172C4.24655 12.8788 5.51214 11.5591 5.76255 10.7233C5.90312 10.3507 5.96255 9.95238 5.93688 9.55498C5.9112 9.15758 5.80101 8.77023 5.61366 8.41883C5.35648 8.00599 4.59848 6.90622 3.89462 7.72175C3.19754 8.48312 3.38366 8.87904 4.46651 8.90611C4.49085 8.87557 4.52539 8.85483 4.56379 8.84767C4.60218 8.84052 4.64188 8.84744 4.67558 8.86717C4.70929 8.8869 4.73476 8.91812 4.74732 8.9551C4.75989 8.99209 4.7587 9.03236 4.74399 9.06854C4.04014 10.4559 2.849 9.14637 3.20769 8.01953C3.78634 6.18884 5.57643 7.42058 6.09755 8.46282C6.89954 10.0397 5.84037 12.219 4.43605 13.1022Z" fill="#D8744C"/>
<path d="M10.7709 1.05212C10.5536 1.42162 10.3581 1.80353 10.1854 2.19589C9.64151 3.33106 9.47434 4.6103 9.70831 5.84713C10.0467 7.42403 11.363 9.70817 13.2513 8.30046C13.6626 8.03661 13.9699 7.63843 14.1209 7.17361C14.4841 6.00729 13.7453 5.43654 11.9045 5.46136C11.6202 5.76591 10.913 6.51037 11.671 6.85552C11.8537 6.93674 11.7217 7.21422 11.539 7.16685C10.7404 6.98073 10.7844 6.23289 11.2311 5.63394C11.4682 5.27526 11.8162 5.00403 12.2219 4.86166C12.6276 4.7193 13.0687 4.71361 13.478 4.84548C14.4492 5.08912 14.8315 6.43592 14.5101 7.27851C14.3537 7.71324 14.0899 8.10133 13.7432 8.40663C13.3965 8.71194 12.9781 8.92453 12.5271 9.02461C9.58987 9.80291 8.86571 5.23802 9.38007 3.32611C9.57583 2.65472 9.83179 2.00236 10.1448 1.37698L10.7709 1.05212Z" fill="#D8744C"/>
<path d="M20.9225 14.1444C20.5544 14.0732 20.2131 13.9015 19.9365 13.6483C19.66 13.395 19.459 13.0701 19.3558 12.7096C19.1967 12.2156 19.4167 11.6031 19.5013 11.1259C19.7788 9.58965 18.97 8.79105 18.0902 7.71158C17.3458 6.79793 16.6419 5.58649 16.6453 4.3649C16.6944 3.37716 16.9638 2.4129 17.4337 1.54272C17.5656 1.54604 17.6969 1.56076 17.8263 1.58672C17.3954 2.27864 17.1238 3.05768 17.031 3.86747C17.0367 5.01514 17.4142 6.13004 18.1071 7.04495C18.8448 8.06012 19.7517 8.86212 19.9886 10.1412C20.0867 10.6759 19.8532 11.2105 19.7822 11.7249C19.5961 13.0582 20.1612 13.6436 20.8819 13.7959C20.8955 13.9143 20.9124 14.0327 20.9225 14.1444Z" fill="#D8744C"/>
<path d="M20.2152 25.6497C20.1324 25.5418 20.0395 25.4421 19.9377 25.3519C19.3354 24.8206 18.5842 24.7766 17.6942 24.6108C17.1234 24.5448 16.5456 24.6397 16.0259 24.8849C15.9226 24.8877 15.8201 24.9048 15.7214 24.9357C14.9296 25.1861 14.7062 24.6616 14.1039 24.4247C13.2294 24.0461 12.2522 23.9757 11.3325 24.2251C10.8113 24.3739 10.3173 24.7834 9.82324 24.9898C9.21753 25.2402 8.23957 25.0237 7.59324 24.9898C6.63707 24.861 5.66528 25.0551 4.83198 25.5414C3.68483 26.2182 3.32613 27.5041 3.40735 28.746C3.41706 28.9025 3.43513 29.0584 3.46149 29.2129C3.51035 29.5436 3.5908 29.8688 3.70175 30.1841C4.37853 32.1366 6.25998 33.2533 8.07037 34.0012C10.0466 34.8099 12.3036 35.2058 14.3543 34.8573C14.5201 34.8302 14.6927 34.7964 14.8517 34.7558C15.8526 34.5353 16.7893 34.0877 17.5896 33.4475C18.3899 32.8074 19.0324 31.9919 19.4674 31.0639C20.266 29.4566 21.3116 27.0912 20.2152 25.6497Z" fill="#8E3F20"/>
<path d="M14.8449 34.7321C14.6825 34.7727 14.5066 34.8066 14.3475 34.8336C14.7328 34.4374 15.029 33.9634 15.2163 33.4434C15.4037 32.9235 15.4778 32.3695 15.4337 31.8186C15.2409 30.2823 13.7181 29.6089 12.307 30.0048C11.6039 30.1637 10.9542 30.5031 10.4222 30.9895C10.1413 31.2873 9.82322 31.6832 9.8706 32.1299C10.2394 33.0503 10.7809 33.2939 11.4881 32.8608V32.1299C11.2817 31.9945 11.4881 31.6663 11.6878 31.7915C13.3797 32.8067 10.0973 34.4986 9.5119 32.4243C8.96709 30.4887 12.3442 29.1588 13.7722 29.5581C16.3169 30.2789 16.1714 32.9623 14.8449 34.7321Z" fill="#B75B3E"/>
<path d="M18.8313 31.8254C17.1394 33.3075 16.3001 30.7493 16.801 29.3889C17.3221 27.9542 18.4117 26.0964 19.9345 25.3282C20.0362 25.4185 20.1291 25.5182 20.2119 25.626C19.6306 25.9003 19.1157 26.2975 18.7027 26.7901C17.9861 27.5483 17.4525 28.4604 17.1427 29.4566C16.9025 30.0963 16.9231 30.8048 17.2003 31.4294L18.5538 31.5276C18.8427 31.205 19.0463 30.8153 19.146 30.394L18.5572 29.3077C18.476 29.4059 18.3406 29.3077 18.3609 29.1927L18.4083 28.9524C18.4162 28.9218 18.4324 28.8939 18.4551 28.8718C18.4777 28.8497 18.5061 28.8343 18.5369 28.8272C20.1443 28.5091 19.4912 31.2399 18.8313 31.8254Z" fill="#B75B3E"/>
<path d="M7.91466 31.064C7.45107 31.4023 6.49004 31.8964 6.0163 31.2501C5.66099 30.7594 5.55609 30.1131 6.11105 29.7307C6.1355 29.7157 6.1636 29.7078 6.19226 29.7078C6.22092 29.7078 6.24902 29.7157 6.27347 29.7307L6.44944 29.8288C6.46309 29.8375 6.47397 29.8499 6.4808 29.8645C6.48763 29.8791 6.49013 29.8954 6.488 29.9115C6.48586 29.9275 6.47918 29.9426 6.46875 29.9549C6.45832 29.9672 6.44456 29.9763 6.42912 29.9811C5.48163 30.2011 7.28187 31.3516 7.91466 30.5665C8.43579 29.8424 8.42564 29.1791 7.88421 28.5768C7.4448 28.13 6.88332 27.8227 6.27009 27.6936C5.69991 27.5667 5.10319 27.6459 4.5859 27.9173C4.06861 28.1886 3.66423 28.6345 3.44452 29.1757C3.41817 29.0212 3.40009 28.8653 3.39038 28.7088C3.60475 28.2125 3.98487 27.8062 4.46572 27.5593C4.94657 27.3124 5.49827 27.2403 6.02645 27.3552C7.55597 27.653 9.91117 29.6156 7.91466 31.064Z" fill="#B75B3E"/>
<path d="M15.9346 26.4619C15.9346 26.4619 12.6522 30.8948 8.46289 26.4619C8.46289 26.4619 11.011 25.8054 11.9145 26.4619L12.2529 26.8003C12.2529 26.8003 13.2274 25.8054 15.9346 26.4619Z" fill="#B66C50"/>
<path d="M15.9346 26.4619C15.9346 26.4619 12.6522 30.8948 8.46289 26.4619C8.46289 26.4619 12.6522 28.1876 15.9346 26.4619Z" fill="#CD8B6D"/>
<path d="M15.7553 12.8552C14.4186 13.1022 13.2545 13.5319 11.8671 13.2748C11.1052 13.0775 10.3187 12.992 9.53224 13.021C9.47133 13.021 9.44426 13.1225 9.53224 13.136C11.7758 13.515 13.6505 13.938 15.8195 12.9668C15.8703 12.9364 15.8195 12.845 15.7553 12.8552Z" fill="#CD8B6D"/>
<path d="M14.6419 12.2697C14.0463 12.2269 13.4479 12.2416 12.8552 12.3137C12.0735 12.3577 11.302 12.1445 10.5169 12.1818C10.4994 12.1855 10.4838 12.195 10.4726 12.2089C10.4613 12.2228 10.4552 12.24 10.4552 12.2579C10.4552 12.2757 10.4613 12.293 10.4726 12.3069C10.4838 12.3207 10.4994 12.3303 10.5169 12.334C11.9212 12.4626 13.224 12.6724 14.6419 12.4119C14.7129 12.3983 14.7163 12.2765 14.6419 12.2697Z" fill="#CD8B6D"/>
<path d="M12.8958 22.0188C12.6623 21.6093 12.8958 20.8344 12.8958 20.3539C12.8958 19.7143 12.9466 19.0917 12.9466 18.4487C12.9466 17.9378 13.0785 16.7568 12.6894 16.2255C12.6556 15.7281 12.2055 15.7551 11.9889 16.1815C11.6269 16.8955 11.6878 17.8329 11.6878 18.6145C11.6878 19.2913 11.6708 19.976 11.637 20.6686C11.6133 21.1254 11.637 21.809 11.4509 22.2116C10.8519 21.8733 10.1244 21.5958 10.5914 22.5805C10.8249 23.0745 11.6269 24.1574 12.2427 24.0931C12.9195 24.0288 13.7993 22.9087 14.043 22.3301C14.4017 21.4435 13.3763 21.7108 12.8958 22.0188Z" fill="#CD8B6D"/>
</svg>
