<svg width="269" height="812" viewBox="0 0 269 812" fill="none" xmlns="http://www.w3.org/2000/svg">
<rect x="65.6666" width="135" height="135" fill="#FF356B"/>
<rect x="65.6666" width="67.6667" height="67.6667" fill="#FFAC30"/>
<rect x="65.6666" y="67.6666" width="67.6667" height="67.6667" fill="#FFAC30"/>
<rect x="133.167" y="67.5" width="67.5" height="67.5" fill="#3A4276"/>
<path d="M134.5 120C163.322 120 186 96.1102 186 67.5C186 38.8898 163.322 15 134.5 15C105.678 15 83 38.8898 83 67.5C83 96.1102 105.678 120 134.5 120Z" fill="#58D8F4" stroke="white" stroke-width="30"/>
<rect x="68" y="270" width="133" height="136" fill="#FF356B"/>
<rect x="65.6666" y="338.333" width="67.6667" height="67.6667" fill="#FFAC30"/>
<circle cx="134.3" cy="338.3" r="51.3" fill="#58D8F4" stroke="white" stroke-width="30"/>
<path d="M133 270H201V407H133V270Z" fill="#3A4276"/>
<rect x="65.6666" y="135" width="135" height="135.833" fill="white"/>
<path d="M65.6666 135H133.333V202.667L99.5 168.833L65.6666 135Z" fill="#FFAC30"/>
<path d="M133.333 202.5L65.6666 202.5L65.6666 134.833L99.4999 168.667L133.333 202.5Z" fill="white"/>
<path d="M65.6666 202.5H133.333L98.1466 237.687L65.6666 270.167V202.5Z" fill="#FF356B"/>
<path d="M133.333 270.667H65.6666L99.4999 236.833L133.333 203V270.667Z" fill="white"/>
<path d="M166.917 169.167L200.667 135V203.333H133.167L166.917 169.167Z" fill="#58D8F4"/>
<rect x="65.6666" y="405.833" width="135" height="135.833" fill="white"/>
<path d="M166.917 507.5L200.667 473.333V541.667H133.167L166.917 507.5Z" fill="#FF356B"/>
<path d="M133.167 472.392L65.6666 541.667L65.6666 405.833L200.667 405.833L133.167 472.392Z" fill="#FFAC30"/>
<rect x="65.6666" y="541.667" width="135" height="135" fill="white"/>
<path d="M133.333 607.647L65.6667 676.667L65.6667 541.333H201L133.333 607.647Z" fill="#58D8F4"/>
<path d="M65.6666 541.333H133.333V609L99.5 575.167L65.6666 541.333Z" fill="#3A4276"/>
<path d="M65.6666 608.667H133.333V676.333L99.5 642.5L65.6666 608.667Z" fill="#3A4276"/>
<path d="M200.667 676.667C182.72 676.667 165.509 669.538 152.819 656.848C140.129 644.158 133 626.946 133 609C133 591.054 140.129 573.842 152.819 561.152C165.509 548.463 182.72 541.333 200.667 541.333L200.667 609V676.667Z" fill="#58D8F4"/>
<rect x="68" y="676" width="133" height="136" fill="white"/>
<path d="M201 810C183.23 810 165.522 802.941 152.957 790.376C140.392 777.811 133.333 760.77 133.333 743C133.333 725.231 140.392 708.189 152.957 695.624C165.522 683.059 183.23 676 201 676L201 743L201 810Z" fill="#FF356B"/>
<path d="M66.5 676C84.1369 676 101.051 683.112 113.523 695.77C125.994 708.429 133 725.598 133 743.5C133 761.402 125.994 778.571 113.523 791.23C101.051 803.888 84.1369 811 66.5 811V784.032C77.0905 784.032 87.2471 779.762 94.7357 772.16C102.224 764.559 106.431 754.25 106.431 743.5C106.431 732.75 102.224 722.441 94.7357 714.84C87.2471 707.238 77.0904 702.968 66.5 702.968V676Z" fill="#58D8F4"/>
<path d="M200.667 270.833H133.167V202.5L166.917 236.667L200.667 270.833Z" fill="#3A4276"/>
<path d="M166.667 340C166.667 344.487 165.783 348.93 164.066 353.075C162.349 357.22 159.832 360.987 156.659 364.159C153.487 367.332 149.72 369.849 145.575 371.566C141.43 373.283 136.987 374.167 132.5 374.167C128.013 374.167 123.57 373.283 119.425 371.566C115.28 369.849 111.513 367.332 108.34 364.159C105.168 360.987 102.651 357.22 100.934 353.075C99.217 348.93 98.3333 344.487 98.3333 340L132.5 340H166.667Z" fill="#FF356B"/>
</svg>
